# xmcd
#
# Track frame offsets:
#	150
#	21947
#	41900
#	61055
#	79805
#	98510
#	117437
#	140382
#	156200
#	173245
#	190837
#	209775
#
# Disc length: 3068 seconds
#
# Revision: 5
# Processed by: cddbd v1.5.2PL0 Copyright (c) Steve Scherf et al.
# Submitted via: EasyCDDAExtractor 15.3.0.1
#
DISCID=a50bfa0c
DTITLE=Gisselle - En Alma, Cuerpo Y Corazon
DYEAR=2002
DGENRE=Latin
TTITLE0=Marchate
TTITLE1=No Hay Aire
TTITLE2=De Nuevo Sola
TTITLE3=No Quiero Perderte No
TTITLE4=Amame
TTITLE5=En Alma, Cuerpo Y Corazon
TTITLE6=Te Dire Lo Que Siento
TTITLE7=El Meneo
TTITLE8=Si La Noche Te Trajera
TTITLE9=No Hay Aire (Version Grupera)
TTITLE10=Heart And Soul
TTITLE11=Can't Fight It
EXTD=
EXTT0=
EXTT1=
EXTT2=
EXTT3=
EXTT4=
EXTT5=
EXTT6=
EXTT7=
EXTT8=
EXTT9=
EXTT10=
EXTT11=
PLAYORDER=
